<?xml version="1.0" encoding="UTF-8"?>
<svg xmlns="http://www.w3.org/2000/svg" xmlns:xlink="http://www.w3.org/1999/xlink" width="1365px" height="1365px" viewBox="0 0 768 768" version="1.1">
<g id="surface1">
<path style=" stroke:none;fill-rule:nonzero;fill:rgb(0%,0%,0%);fill-opacity:1;" d="M 364.5 154.199219 C 337.199219 157.425781 318.523438 161.851562 297.898438 169.949219 C 231.976562 196.050781 181.351562 253.875 164.25 322.800781 C 156 356.101562 155.324219 392.398438 162.449219 425.25 C 173.023438 474.148438 199.648438 518.175781 237.75 549.898438 C 269.550781 576.300781 305.625 593.023438 345.226562 599.625 C 420.148438 612.074219 492.675781 589.574219 544.5 537.75 C 571.5 510.75 591.523438 477.226562 601.875 441.675781 C 608.398438 419.101562 610.800781 402.148438 610.800781 377.25 C 610.800781 347.476562 606.976562 325.875 596.699219 298.125 C 592.949219 288.148438 583.199219 268.425781 577.351562 259.125 C 545.398438 208.574219 494.625 172.648438 436.648438 159.675781 C 417 155.25 408.675781 154.351562 387 154.125 C 376.050781 153.976562 365.925781 154.050781 364.5 154.199219 Z M 407.25 170.625 C 442.050781 174.75 473.773438 186.148438 501.75 204.601562 C 514.648438 213.074219 521.699219 218.699219 532.800781 229.5 C 544.125 240.449219 550.949219 248.550781 558.976562 260.25 C 585.601562 299.324219 597.75 343.574219 594.75 390.75 C 592.351562 428.773438 580.800781 463.949219 561 493.5 C 546.75 514.726562 526.050781 535.800781 505.5 549.824219 C 477.976562 568.726562 445.800781 581.023438 412.050781 585.449219 C 400.199219 587.023438 370.949219 587.25 358.875 585.898438 C 321.824219 581.625 285.523438 566.699219 255.148438 543.375 C 245.175781 535.726562 225.523438 516.449219 217.949219 507 C 199.125 483.375 185.101562 453.976562 178.574219 424.5 C 174.601562 406.726562 173.699219 398.175781 173.699219 378.375 C 173.699219 359.398438 174.375 351.898438 177.449219 335.699219 C 189.300781 274.351562 230.25 220.949219 287.398438 192.300781 C 311.023438 180.449219 333.300781 173.773438 360.75 170.324219 C 369.226562 169.199219 397.125 169.425781 407.25 170.625 Z M 407.25 170.625 "/>
<path style=" stroke:none;fill-rule:nonzero;fill:rgb(0%,0%,0%);fill-opacity:1;" d="M 312.75 289.125 L 312.75 308.25 L 325.726562 308.398438 L 338.625 308.625 L 338.625 341.25 C 338.625 373.050781 338.550781 373.949219 336.976562 377.398438 C 332.773438 386.550781 323.476562 390.601562 314.175781 387.375 C 307.875 385.125 304.125 379.648438 302.25 369.898438 C 301.726562 367.351562 300.976562 365.25 300.675781 365.25 C 299.925781 365.25 272.550781 372.976562 267.375 374.550781 C 264.375 375.523438 264.375 375.523438 264.449219 379.273438 C 264.75 390.675781 273.824219 406.5 284.851562 414.976562 C 295.273438 423 306.75 426.898438 320.25 427.050781 C 347.25 427.199219 368.023438 411.976562 375.824219 386.25 C 377.550781 380.625 377.550781 380.550781 377.773438 325.273438 L 378 270 L 312.75 270 Z M 369.601562 329.023438 C 369.375 374.625 369.148438 380.324219 368.023438 384.375 C 365.550781 392.925781 362.398438 398.25 355.949219 404.625 C 346.199219 414.375 335.625 418.648438 321.75 418.726562 C 308.023438 418.800781 296.25 414.375 286.875 405.601562 C 280.648438 399.824219 277.5 395.25 274.425781 387.675781 C 271.949219 381.675781 271.875 381 273.226562 381 C 273.75 381 278.398438 379.800781 283.5 378.375 C 288.601562 376.949219 293.324219 375.75 294 375.75 C 294.675781 375.75 295.5 376.949219 296.101562 378.898438 C 300.148438 392.101562 314.625 399.675781 328.050781 395.625 C 333 394.125 336.074219 392.101562 340.050781 387.675781 C 346.199219 380.851562 346.050781 381.976562 346.351562 338.398438 L 346.574219 300 L 321 300 L 321 278.25 L 369.824219 278.25 Z M 369.601562 329.023438 "/>
<path style=" stroke:none;fill-rule:nonzero;fill:rgb(0%,0%,0%);fill-opacity:1;" d="M 387.75 347.398438 L 387.75 424.875 L 407.625 424.648438 L 427.5 424.425781 L 427.5 383.175781 L 430.273438 383.398438 C 433.199219 383.625 433.648438 384.226562 462 421.273438 L 464.925781 425.175781 L 487.875 425.175781 C 506.925781 425.175781 510.824219 424.949219 510.601562 424.125 C 510.449219 423.601562 502.050781 412.273438 491.851562 399.074219 C 481.574219 385.875 473.25 374.925781 473.25 374.773438 C 473.25 374.625 475.125 373.199219 477.449219 371.625 C 487.125 364.949219 495.601562 351.601562 498.449219 338.699219 C 500.101562 330.75 499.574219 317.550781 497.25 310.125 C 492.074219 293.773438 479.925781 280.875 463.5 274.273438 C 453.601562 270.375 449.625 270 417.375 270 L 387.75 270 Z M 454.125 280.125 C 461.175781 281.925781 464.925781 283.574219 471.148438 287.773438 C 484.199219 296.550781 491.476562 310.5 491.550781 326.625 C 491.550781 334.648438 490.425781 339.675781 487.050781 347.101562 C 482.925781 356.175781 475.949219 363.675781 466.574219 369 C 464.101562 370.425781 462 372 462 372.523438 C 462 372.976562 469.425781 383.023438 478.5 394.800781 L 494.925781 416.25 L 468.375 416.25 L 460.125 405.601562 C 449.773438 392.25 443.773438 384.523438 439.648438 379.199219 L 436.425781 375 L 420 375 L 420 416.25 L 396 416.25 L 396 278.101562 L 422.476562 278.476562 C 444.449219 278.773438 449.773438 279 454.125 280.125 Z M 454.125 280.125 "/>
<path style=" stroke:none;fill-rule:nonzero;fill:rgb(0%,0%,0%);fill-opacity:1;" d="M 420 326.25 L 420 354.75 L 431.476562 354.75 C 444.675781 354.75 449.699219 353.773438 456 349.949219 C 464.398438 344.851562 468.449219 336.898438 468.300781 325.800781 C 468.226562 317.625 466.273438 312.601562 460.949219 306.898438 C 454.351562 299.851562 447.601562 297.75 431.476562 297.75 L 420 297.75 Z M 449.101562 308.175781 C 465.148438 315.300781 463.875 339.898438 447.074219 345.601562 C 445.648438 346.125 440.699219 346.5 436.050781 346.5 L 427.5 346.5 L 427.5 305.851562 L 436.351562 306.148438 C 443.476562 306.375 445.875 306.75 449.101562 308.175781 Z M 449.101562 308.175781 "/>
<path style=" stroke:none;fill-rule:nonzero;fill:rgb(0%,0%,0%);fill-opacity:1;" d="M 413.023438 451.273438 C 412.800781 451.648438 412.425781 453.523438 412.125 455.476562 C 411.675781 458.398438 411.375 459 410.324219 458.550781 C 407.625 457.425781 405.824219 457.425781 403.574219 458.625 C 400.125 460.351562 398.25 463.875 398.25 468.523438 C 398.25 471.824219 398.550781 472.648438 400.199219 473.925781 C 402.523438 475.800781 404.925781 475.949219 406.949219 474.375 C 408.601562 473.101562 409.800781 472.875 409.125 474 C 408.824219 474.449219 409.574219 474.75 410.851562 474.75 C 412.949219 474.75 413.023438 474.601562 413.925781 469.648438 C 414.375 466.875 415.425781 461.476562 416.175781 457.648438 L 417.523438 450.75 L 415.425781 450.75 C 414.300781 450.75 413.175781 450.976562 413.023438 451.273438 Z M 409.800781 464.773438 C 409.726562 470.023438 406.273438 473.476562 403.648438 470.851562 C 402.300781 469.5 402.601562 466.425781 404.25 463.648438 C 405.449219 461.625 406.199219 461.175781 407.851562 461.398438 C 409.726562 461.625 409.875 461.925781 409.800781 464.773438 Z M 409.800781 464.773438 "/>
<path style=" stroke:none;fill-rule:nonzero;fill:rgb(0%,0%,0%);fill-opacity:1;" d="M 479.101562 453.148438 C 477.898438 454.425781 477 455.550781 477 455.699219 C 477 455.851562 478.125 456 479.476562 456 C 482.175781 456 484.5 454.125 484.5 452.023438 C 484.5 449.925781 481.351562 450.601562 479.101562 453.148438 Z M 479.101562 453.148438 "/>
<path style=" stroke:none;fill-rule:nonzero;fill:rgb(0%,0%,0%);fill-opacity:1;" d="M 525 451.875 C 523.648438 453.523438 524.398438 455.625 526.425781 455.625 C 528.824219 455.625 530.101562 453.523438 528.824219 451.949219 C 527.550781 450.449219 526.199219 450.449219 525 451.875 Z M 525 451.875 "/>
<path style=" stroke:none;fill-rule:nonzero;fill:rgb(0%,0%,0%);fill-opacity:1;" d="M 254.476562 452.851562 L 251.324219 453.074219 L 248.101562 460.574219 L 244.875 468.074219 L 243.824219 460.574219 L 242.773438 453 L 236.550781 453 L 234.824219 462.898438 C 233.851562 468.300781 232.949219 473.175781 232.726562 473.773438 C 232.425781 474.449219 233.023438 474.75 234.601562 474.75 C 236.773438 474.75 236.851562 474.601562 237.675781 469.648438 C 238.199219 466.875 238.800781 463.425781 239.023438 462 L 239.550781 459.375 L 240.074219 462 C 240.375 463.425781 240.898438 466.875 241.125 469.648438 C 241.648438 474.375 241.800781 474.75 243.449219 474.75 C 244.800781 474.75 245.550781 474 246.601562 471.523438 C 250.726562 462.523438 252.148438 459.675781 252.523438 459.976562 C 252.675781 460.199219 252.300781 463.199219 251.699219 466.648438 C 250.125 474.824219 250.125 474.75 252.601562 474.75 L 254.773438 474.75 L 256.425781 464.773438 C 257.398438 459.226562 258 454.273438 257.925781 453.675781 C 257.699219 452.925781 256.726562 452.699219 254.476562 452.851562 Z M 254.476562 452.851562 "/>
<path style=" stroke:none;fill-rule:nonzero;fill:rgb(0%,0%,0%);fill-opacity:1;" d="M 300.449219 455.625 C 300 457.800781 299.625 458.25 298.125 458.25 C 296.773438 458.25 296.25 458.625 296.25 459.75 C 296.25 460.726562 296.773438 461.25 297.675781 461.25 C 298.949219 461.25 299.023438 461.550781 298.425781 464.25 C 297.226562 469.726562 297.375 473.324219 298.875 474.449219 C 300.824219 475.875 304.199219 475.800781 304.800781 474.300781 C 305.550781 472.273438 305.324219 471.75 303.675781 471.75 C 302.175781 471.75 302.101562 471.523438 302.550781 467.101562 C 303.226562 461.476562 303.375 461.25 305.625 461.25 C 306.523438 461.25 307.574219 460.726562 307.800781 460.050781 C 308.476562 458.324219 308.398438 458.25 306.300781 458.25 C 304.425781 458.25 304.351562 458.101562 304.800781 455.625 C 305.324219 453.074219 305.25 453 303.148438 453 C 301.199219 453 300.824219 453.300781 300.449219 455.625 Z M 300.449219 455.625 "/>
<path style=" stroke:none;fill-rule:nonzero;fill:rgb(0%,0%,0%);fill-opacity:1;" d="M 264 458.851562 C 256.949219 462.300781 257.175781 473.851562 264.300781 475.125 C 270.976562 476.398438 277.050781 469.273438 275.175781 462.375 C 273.824219 457.648438 269.25 456.148438 264 458.851562 Z M 270.601562 464.175781 C 270.976562 467.699219 269.476562 470.925781 267.148438 471.523438 C 263.398438 472.425781 261.898438 466.949219 264.824219 463.199219 C 265.949219 461.699219 267 461.25 268.425781 461.398438 C 270.074219 461.550781 270.449219 462.074219 270.601562 464.175781 Z M 270.601562 464.175781 "/>
<path style=" stroke:none;fill-rule:nonzero;fill:rgb(0%,0%,0%);fill-opacity:1;" d="M 287.25 458.023438 C 286.648438 458.25 285.523438 458.925781 284.851562 459.601562 C 283.648438 460.648438 283.5 460.574219 283.5 459.523438 C 283.5 458.625 282.824219 458.25 281.398438 458.25 C 279.300781 458.25 279.300781 458.324219 278.324219 464.773438 C 277.875 468.449219 277.199219 472.125 276.976562 473.023438 C 276.675781 474.523438 276.898438 474.75 278.851562 474.75 C 281.324219 474.75 281.550781 474.375 282.375 468.75 C 283.199219 463.648438 284.699219 461.25 287.023438 461.25 C 288.976562 461.25 288.976562 461.25 288.449219 465.898438 C 288.226562 468.523438 287.773438 471.523438 287.550781 472.648438 C 287.101562 474.601562 287.25 474.75 289.425781 474.75 C 290.699219 474.75 291.75 474.675781 291.75 474.523438 C 291.75 474.449219 292.273438 471.523438 292.875 468 C 294.300781 460.125 294.300781 460.800781 292.5 459 C 291 457.5 289.425781 457.199219 287.25 458.023438 Z M 287.25 458.023438 "/>
<path style=" stroke:none;fill-rule:nonzero;fill:rgb(0%,0%,0%);fill-opacity:1;" d="M 312.898438 459 C 309.898438 460.800781 308.25 464.476562 308.25 469.050781 C 308.25 471.75 308.625 472.648438 310.199219 473.925781 C 312.601562 475.800781 314.773438 475.949219 317.101562 474.300781 C 318 473.699219 318.75 473.550781 318.75 473.925781 C 318.75 474.375 319.800781 474.75 321 474.75 C 322.800781 474.75 323.25 474.449219 323.25 473.023438 C 323.25 471.375 325.050781 462.300781 325.949219 459.523438 C 326.398438 458.175781 326.175781 458.101562 323.324219 458.476562 C 321.675781 458.699219 320.023438 458.550781 319.800781 458.175781 C 319.125 456.976562 315.449219 457.425781 312.898438 459 Z M 319.800781 464.476562 C 319.648438 468.226562 318.148438 470.925781 315.898438 471.523438 C 313.5 472.125 312.601562 470.625 313.050781 467.023438 C 313.5 463.351562 315.449219 461.101562 317.925781 461.398438 C 319.648438 461.625 319.875 461.925781 319.800781 464.476562 Z M 319.800781 464.476562 "/>
<path style=" stroke:none;fill-rule:nonzero;fill:rgb(0%,0%,0%);fill-opacity:1;" d="M 332.101562 458.699219 C 329.476562 460.050781 327 464.851562 327 468.375 C 327 473.398438 331.949219 476.324219 335.851562 473.550781 C 337.726562 472.273438 337.949219 472.949219 336.601562 475.875 C 335.550781 478.273438 332.925781 478.949219 329.851562 477.675781 C 327.824219 476.851562 327.449219 476.925781 326.550781 478.125 C 325.949219 478.875 325.5 479.773438 325.5 480.074219 C 325.5 481.199219 330.976562 482.398438 334.050781 482.023438 C 339 481.351562 340.648438 478.800781 342.675781 468.824219 C 343.574219 464.175781 344.550781 459.898438 344.773438 459.300781 C 345.074219 458.550781 344.550781 458.25 342.824219 458.25 C 341.550781 458.25 340.5 458.625 340.5 459.148438 C 340.5 459.601562 339.976562 459.449219 339.148438 458.773438 C 337.425781 457.199219 334.800781 457.199219 332.101562 458.699219 Z M 338.851562 464.324219 C 339.148438 467.550781 336.75 471 334.125 471 C 332.023438 471 331.199219 469.125 331.949219 465.976562 C 332.699219 462.898438 334.5 461.175781 336.675781 461.398438 C 338.324219 461.625 338.625 462.074219 338.851562 464.324219 Z M 338.851562 464.324219 "/>
<path style=" stroke:none;fill-rule:nonzero;fill:rgb(0%,0%,0%);fill-opacity:1;" d="M 351 458.851562 C 345.976562 461.324219 344.101562 468.976562 347.550781 473.023438 C 349.125 474.824219 349.949219 475.125 353.175781 475.125 C 357.300781 475.125 359.773438 473.550781 359.023438 471.375 C 358.648438 470.476562 358.199219 470.324219 357.074219 471 C 354.976562 472.050781 352.800781 471.898438 351.449219 470.550781 C 348.976562 468.148438 349.949219 467.324219 355.726562 467.101562 L 361.125 466.875 L 361.351562 464.101562 C 361.574219 461.925781 361.199219 460.875 359.699219 459.375 C 357.449219 457.125 354.675781 456.976562 351 458.851562 Z M 356.851562 462.300781 C 357.226562 464.023438 355.800781 465 353.101562 465 C 350.625 465 350.476562 464.023438 352.574219 461.925781 C 354.375 460.125 356.476562 460.273438 356.851562 462.300781 Z M 356.851562 462.300781 "/>
<path style=" stroke:none;fill-rule:nonzero;fill:rgb(0%,0%,0%);fill-opacity:1;" d="M 372.074219 458.699219 C 370.726562 459.675781 370.199219 459.75 369.75 459 C 369.449219 458.550781 368.398438 458.25 367.425781 458.398438 C 365.851562 458.625 365.550781 459.300781 364.351562 465 C 362.476562 474.074219 362.550781 474.75 365.101562 474.75 C 367.125 474.75 367.273438 474.601562 368.175781 469.125 C 368.925781 464.476562 369.449219 463.273438 370.949219 462.226562 C 373.875 460.351562 374.550781 461.699219 373.574219 467.398438 C 372.375 474.449219 372.449219 474.75 374.925781 474.75 C 376.949219 474.75 377.101562 474.601562 377.925781 469.199219 C 378.898438 463.351562 380.625 460.648438 382.949219 461.550781 C 384.226562 462.074219 384.226562 463.875 382.800781 471.898438 C 382.351562 474.675781 382.351562 474.75 384.523438 474.75 C 386.699219 474.75 386.773438 474.601562 387.675781 469.574219 C 388.949219 461.625 388.800781 459.976562 386.625 458.550781 C 384.449219 457.125 381.523438 457.574219 379.726562 459.75 C 378.523438 461.175781 378.449219 461.175781 377.625 459.523438 C 376.648438 457.425781 374.398438 457.125 372.074219 458.699219 Z M 372.074219 458.699219 "/>
<path style=" stroke:none;fill-rule:nonzero;fill:rgb(0%,0%,0%);fill-opacity:1;" d="M 422.476562 458.699219 C 420.074219 459.898438 417 464.851562 417 467.476562 C 417 472.425781 421.425781 476.101562 426.148438 475.199219 C 429.75 474.523438 430.726562 473.699219 430.125 471.824219 C 429.75 470.550781 429.375 470.398438 428.25 471 C 426 472.199219 423.898438 471.898438 422.699219 470.101562 C 422.101562 469.199219 421.726562 468.226562 421.949219 467.851562 C 422.175781 467.550781 424.5 467.25 427.125 467.25 C 432.226562 467.25 432.75 466.800781 432.75 462.75 C 432.75 460.199219 429.75 457.5 426.824219 457.5 C 425.773438 457.5 423.824219 458.101562 422.476562 458.699219 Z M 428.324219 461.699219 C 429.148438 462.75 429.074219 463.050781 427.875 463.949219 C 426.375 465.074219 422.25 465.375 422.25 464.398438 C 422.25 463.5 423.300781 462.300781 424.875 461.398438 C 426.898438 460.273438 427.125 460.273438 428.324219 461.699219 Z M 428.324219 461.699219 "/>
<path style=" stroke:none;fill-rule:nonzero;fill:rgb(0%,0%,0%);fill-opacity:1;" d="M 450.449219 459.074219 C 449.023438 460.199219 448.648438 460.273438 448.949219 459.449219 C 449.324219 458.550781 448.875 458.25 447.148438 458.25 L 444.898438 458.25 L 443.625 465.523438 C 442.875 469.574219 442.125 473.324219 441.976562 473.773438 C 441.675781 474.449219 442.351562 474.75 443.925781 474.75 C 446.398438 474.75 446.25 475.125 447.75 467.101562 C 448.648438 462.601562 450 460.800781 451.949219 461.550781 C 453 461.925781 453.148438 462.75 452.773438 465.976562 C 452.550781 468.074219 452.101562 471 451.800781 472.273438 C 451.351562 474.675781 451.425781 474.75 453.601562 474.75 C 455.773438 474.75 455.925781 474.523438 456.375 471.148438 C 457.125 465.75 458.25 462.824219 459.824219 461.925781 C 462.898438 460.273438 463.125 461.398438 461.550781 471.898438 C 461.101562 474.601562 461.175781 474.75 463.273438 474.75 C 465.375 474.75 465.449219 474.601562 466.351562 469.5 C 467.550781 462.300781 467.476562 460.199219 465.898438 458.773438 C 464.101562 457.125 461.851562 457.199219 459.601562 458.925781 C 457.800781 460.425781 457.726562 460.425781 456.523438 458.925781 C 454.875 457.050781 452.925781 457.125 450.449219 459.074219 Z M 450.449219 459.074219 "/>
<path style=" stroke:none;fill-rule:nonzero;fill:rgb(0%,0%,0%);fill-opacity:1;" d="M 474.824219 458.398438 C 470.101562 460.949219 467.925781 468.824219 470.925781 472.574219 C 473.851562 476.324219 480.449219 475.875 484.050781 471.824219 C 486.226562 469.425781 486.601562 462.226562 484.726562 459.824219 C 483 457.726562 477.601562 456.898438 474.824219 458.398438 Z M 481.351562 464.851562 C 481.648438 468.824219 480 471.75 477.449219 471.75 C 474.898438 471.75 473.699219 469.949219 474.226562 466.800781 C 474.824219 463.199219 476.773438 461.101562 479.175781 461.398438 C 480.898438 461.625 481.125 462 481.351562 464.851562 Z M 481.351562 464.851562 "/>
<path style=" stroke:none;fill-rule:nonzero;fill:rgb(0%,0%,0%);fill-opacity:1;" d="M 509.476562 458.625 C 504.601562 460.726562 502.425781 469.5 505.949219 473.324219 C 508.726562 476.398438 517.875 475.5 517.351562 472.125 C 517.199219 471.226562 516.675781 470.773438 516 470.925781 C 512.550781 471.824219 510.898438 471.75 509.773438 470.625 C 507.226562 468.148438 508.199219 467.25 513.226562 467.25 C 518.625 467.25 519.75 466.5 519.75 463.050781 C 519.75 458.476562 514.800781 456.300781 509.476562 458.625 Z M 515.25 461.625 C 516.523438 463.199219 515.476562 464.175781 512.023438 464.773438 C 509.773438 465.074219 509.25 464.925781 509.25 464.023438 C 509.25 462.75 511.949219 460.5 513.449219 460.5 C 513.898438 460.5 514.726562 461.023438 515.25 461.625 Z M 515.25 461.625 "/>
<path style=" stroke:none;fill-rule:nonzero;fill:rgb(0%,0%,0%);fill-opacity:1;" d="M 533.625 458.175781 C 531.148438 459.226562 530.101562 460.949219 530.398438 463.648438 C 530.550781 465.675781 531.148438 466.425781 533.625 467.699219 C 535.273438 468.523438 536.550781 469.425781 536.476562 469.726562 C 536.324219 470.023438 536.25 470.550781 536.25 471 C 536.25 471.976562 532.800781 471.976562 531.074219 471.074219 C 530.101562 470.550781 529.574219 470.699219 528.898438 471.75 C 527.699219 473.773438 529.574219 474.976562 534 475.050781 C 536.851562 475.125 538.050781 474.75 539.550781 473.324219 C 543 470.101562 541.875 466.574219 536.773438 464.398438 C 535.351562 463.800781 534.75 463.050781 534.898438 462.148438 C 535.125 461.175781 535.875 460.949219 538.273438 461.101562 C 540.523438 461.175781 541.425781 460.949219 541.800781 460.050781 C 542.101562 459.375 542.101562 458.625 541.949219 458.398438 C 541.199219 457.726562 535.050781 457.5 533.625 458.175781 Z M 533.625 458.175781 "/>
<path style=" stroke:none;fill-rule:nonzero;fill:rgb(0%,0%,0%);fill-opacity:1;" d="M 488.25 459 C 488.25 459.449219 488.773438 463.199219 489.523438 467.324219 L 490.726562 474.824219 L 493.425781 474.601562 C 495.976562 474.375 496.351562 474 500.023438 467.25 C 502.199219 463.351562 504 459.675781 504 459.148438 C 504 458.699219 503.175781 458.25 502.125 458.25 C 500.550781 458.25 499.875 459.074219 497.476562 464.398438 C 494.324219 471.226562 494.476562 471.300781 493.125 461.773438 C 492.675781 458.476562 492.523438 458.25 490.425781 458.25 C 489.226562 458.25 488.25 458.625 488.25 459 Z M 488.25 459 "/>
<path style=" stroke:none;fill-rule:nonzero;fill:rgb(0%,0%,0%);fill-opacity:1;" d="M 522.898438 463.273438 C 520.800781 475.351562 520.800781 474.75 523.273438 474.75 C 525.449219 474.75 525.523438 474.601562 526.351562 469.273438 C 526.800781 466.351562 527.476562 462.601562 527.699219 461.023438 C 528.148438 458.324219 528.148438 458.25 525.976562 458.25 C 523.800781 458.25 523.726562 458.398438 522.898438 463.273438 Z M 522.898438 463.273438 "/>
</g>
</svg>
